<?xml version="1.0" encoding="UTF-8" standalone="no"?>
<!DOCTYPE svg PUBLIC "-//W3C//DTD SVG 1.1//EN" "http://www.w3.org/Graphics/SVG/1.1/DTD/svg11.dtd">
<svg version="1.1" xmlns="http://www.w3.org/2000/svg" xmlns:xlink="http://www.w3.org/1999/xlink" preserveAspectRatio="xMidYMid meet" viewBox="0 0 640 640" width="640" height="640"><defs><path d="M43.6 491.43C38.16 491.43 33.75 487.03 33.75 481.59C33.75 414.98 33.75 225.02 33.75 158.41C33.75 152.97 38.16 148.57 43.6 148.57C156.71 148.57 486.2 148.57 599.31 148.57C604.75 148.57 609.16 152.97 609.16 158.41C609.16 225.02 609.16 414.98 609.16 481.59C609.16 487.03 604.75 491.43 599.31 491.43C486.2 491.43 156.71 491.43 43.6 491.43Z" id="aCCkMRXw"></path><mask id="maskd14yAGjVQM" x="31.75" y="146.57" width="579.4" height="346.87" maskUnits="userSpaceOnUse"><rect x="31.75" y="146.57" width="579.4" height="346.87" fill="white"></rect><use xlink:href="#aCCkMRXw" opacity="1" fill="black"></use></mask><path d="M75.97 473.43C71.18 473.43 67.3 469.55 67.3 464.76C67.3 405.52 67.3 236.48 67.3 177.24C67.3 172.45 71.18 168.57 75.97 168.57C175.59 168.57 465.78 168.57 565.4 168.57C570.18 168.57 574.07 172.45 574.07 177.24C574.07 236.48 574.07 405.52 574.07 464.76C574.07 469.55 570.18 473.43 565.4 473.43C465.78 473.43 175.59 473.43 75.97 473.43Z" id="c1q35YyA1"></path><linearGradient id="gradientadXUDs0Sp" gradientUnits="userSpaceOnUse" x1="573.71" y1="467.37" x2="72.2" y2="174.24"><stop style="stop-color: #a8f2f6;stop-opacity: 1" offset="0%"></stop><stop style="stop-color: #fffcfc;stop-opacity: 1" offset="100%"></stop></linearGradient><path d="M58.87 321C58.87 325.14 55.83 328.5 52.08 328.5C48.34 328.5 45.3 325.14 45.3 321C45.3 316.86 48.34 313.5 52.08 313.5C55.83 313.5 58.87 316.86 58.87 321Z" id="g1PhjSVHCv"></path><path d="M80 180L260 180L260 360L80 360L80 180Z" id="aLwN6bFSA"></path><path d="M80 380L160 380L160 460L80 460L80 380Z" id="a2ZGzGLvW7"></path><path d="M180 380L260 380L260 460L180 460L180 380Z" id="b33OnZxqZ"></path><path d="M280 180L360 180L360 260L280 260L280 180Z" id="b2gBS534Y"></path><path d="M280 280L460 280L460 360L280 360L280 280Z" id="a1QVHhJSAZ"></path><path d="M280 380L360 380L360 460L280 460L280 380Z" id="cDC6arTbC"></path><path d="M380 180L460 180L460 260L380 260L380 180Z" id="d1ACfdwjeJ"></path><path d="M380 380L460 380L460 460L380 460L380 380Z" id="a1F8QxWnsC"></path><path d="M480 180L560 180L560 260L480 260L480 180Z" id="e7jQQnj8lf"></path><path d="M480 280L560 280L560 360L480 360L480 280Z" id="e12q5t4bG"></path><path d="M480 380L514.55 380L514.55 416.06L480 416.06L480 380Z" id="d2qjJ7omZ"></path><path d="M480 423.94L514.55 423.94L514.55 460L480 460L480 423.94Z" id="b5qHz7Vlf"></path><path d="M525.45 423.94L560 423.94L560 460L525.45 460L525.45 423.94Z" id="a1drHLkJf8"></path><path d="M525.45 380L560 380L560 416.06L525.45 416.06L525.45 380Z" id="a2a2xz6ziO"></path></defs><g><g><g><use xlink:href="#aCCkMRXw" opacity="1" fill="#000000" fill-opacity="1"></use><g mask="url(#maskd14yAGjVQM)"><use xlink:href="#aCCkMRXw" opacity="1" fill-opacity="0" stroke="#ffffff" stroke-width="2" stroke-opacity="1"></use></g></g><g><use xlink:href="#c1q35YyA1" opacity="1" fill="url(#gradientadXUDs0Sp)"></use></g><g><use xlink:href="#g1PhjSVHCv" opacity="1" fill="#ffffff" fill-opacity="1"></use></g><g><use xlink:href="#aLwN6bFSA" opacity="1" fill="#a0b5d4" fill-opacity="1"></use></g><g><use xlink:href="#a2ZGzGLvW7" opacity="1" fill="#a0b5d4" fill-opacity="1"></use></g><g><use xlink:href="#b33OnZxqZ" opacity="1" fill="#a0b5d4" fill-opacity="1"></use></g><g><use xlink:href="#b2gBS534Y" opacity="1" fill="#a0b5d4" fill-opacity="1"></use></g><g><use xlink:href="#a1QVHhJSAZ" opacity="1" fill="#a0b5d4" fill-opacity="1"></use></g><g><use xlink:href="#cDC6arTbC" opacity="1" fill="#a0b5d4" fill-opacity="1"></use></g><g><use xlink:href="#d1ACfdwjeJ" opacity="1" fill="#a0b5d4" fill-opacity="1"></use></g><g><use xlink:href="#a1F8QxWnsC" opacity="1" fill="#a0b5d4" fill-opacity="1"></use></g><g><use xlink:href="#e7jQQnj8lf" opacity="1" fill="#a0b5d4" fill-opacity="1"></use></g><g><use xlink:href="#e12q5t4bG" opacity="1" fill="#a0b5d4" fill-opacity="1"></use></g><g><use xlink:href="#d2qjJ7omZ" opacity="1" fill="#a0b5d4" fill-opacity="1"></use></g><g><use xlink:href="#b5qHz7Vlf" opacity="1" fill="#a0b5d4" fill-opacity="1"></use></g><g><use xlink:href="#a1drHLkJf8" opacity="1" fill="#a0b5d4" fill-opacity="1"></use></g><g><use xlink:href="#a2a2xz6ziO" opacity="1" fill="#a0b5d4" fill-opacity="1"></use></g></g></g></svg>